<mxfile host="app.diagrams.net" modified="2023-07-25T15:37:45.376Z" agent="Mozilla/5.0 (Windows NT 10.0; Win64; x64) AppleWebKit/537.36 (KHTML, like Gecko) Chrome/114.0.0.0 Safari/537.36" etag="qWp6vkClRodvTVvqb3wC" version="21.6.5" type="device">
  <diagram name="Page-1" id="CqXCekB0Eis1N3BfbBDE">
    <mxGraphModel dx="2117" dy="596" grid="1" gridSize="10" guides="1" tooltips="1" connect="1" arrows="1" fold="1" page="1" pageScale="1" pageWidth="827" pageHeight="1169" math="0" shadow="0">
      <root>
        <mxCell id="0" />
        <mxCell id="1" parent="0" />
        <mxCell id="RoCf0thXoswAKe-OMWVe-3" style="edgeStyle=orthogonalEdgeStyle;rounded=0;orthogonalLoop=1;jettySize=auto;html=1;entryX=0.5;entryY=0;entryDx=0;entryDy=0;" edge="1" parent="1" source="RoCf0thXoswAKe-OMWVe-1" target="RoCf0thXoswAKe-OMWVe-2">
          <mxGeometry relative="1" as="geometry" />
        </mxCell>
        <mxCell id="RoCf0thXoswAKe-OMWVe-1" value="Calculator&lt;br&gt;homescreen&lt;br&gt;menu" style="ellipse;whiteSpace=wrap;html=1;" vertex="1" parent="1">
          <mxGeometry x="354" y="30" width="120" height="80" as="geometry" />
        </mxCell>
        <mxCell id="RoCf0thXoswAKe-OMWVe-13" style="edgeStyle=orthogonalEdgeStyle;rounded=0;orthogonalLoop=1;jettySize=auto;html=1;entryX=0.5;entryY=0;entryDx=0;entryDy=0;" edge="1" parent="1" source="RoCf0thXoswAKe-OMWVe-2" target="RoCf0thXoswAKe-OMWVe-4">
          <mxGeometry relative="1" as="geometry">
            <mxPoint x="190" y="230" as="targetPoint" />
            <Array as="points">
              <mxPoint x="190" y="180" />
            </Array>
          </mxGeometry>
        </mxCell>
        <mxCell id="RoCf0thXoswAKe-OMWVe-17" style="edgeStyle=orthogonalEdgeStyle;rounded=0;orthogonalLoop=1;jettySize=auto;html=1;" edge="1" parent="1" source="RoCf0thXoswAKe-OMWVe-2">
          <mxGeometry relative="1" as="geometry">
            <mxPoint x="520" y="240" as="targetPoint" />
          </mxGeometry>
        </mxCell>
        <mxCell id="RoCf0thXoswAKe-OMWVe-2" value="user menu choice" style="shape=parallelogram;perimeter=parallelogramPerimeter;whiteSpace=wrap;html=1;fixedSize=1;" vertex="1" parent="1">
          <mxGeometry x="354" y="150" width="120" height="60" as="geometry" />
        </mxCell>
        <mxCell id="RoCf0thXoswAKe-OMWVe-24" style="edgeStyle=orthogonalEdgeStyle;rounded=0;orthogonalLoop=1;jettySize=auto;html=1;exitX=0.5;exitY=1;exitDx=0;exitDy=0;" edge="1" parent="1" source="RoCf0thXoswAKe-OMWVe-4">
          <mxGeometry relative="1" as="geometry">
            <mxPoint x="190" y="410" as="targetPoint" />
          </mxGeometry>
        </mxCell>
        <mxCell id="RoCf0thXoswAKe-OMWVe-4" value="user choice:&amp;nbsp;&lt;br&gt;add" style="rhombus;whiteSpace=wrap;html=1;" vertex="1" parent="1">
          <mxGeometry x="150" y="240" width="80" height="80" as="geometry" />
        </mxCell>
        <mxCell id="RoCf0thXoswAKe-OMWVe-23" style="edgeStyle=orthogonalEdgeStyle;rounded=0;orthogonalLoop=1;jettySize=auto;html=1;exitX=0.5;exitY=1;exitDx=0;exitDy=0;" edge="1" parent="1" source="RoCf0thXoswAKe-OMWVe-5">
          <mxGeometry relative="1" as="geometry">
            <mxPoint x="270" y="400" as="targetPoint" />
          </mxGeometry>
        </mxCell>
        <mxCell id="RoCf0thXoswAKe-OMWVe-5" value="user choice:&amp;nbsp;&lt;br&gt;subtract" style="rhombus;whiteSpace=wrap;html=1;" vertex="1" parent="1">
          <mxGeometry x="230" y="240" width="80" height="80" as="geometry" />
        </mxCell>
        <mxCell id="RoCf0thXoswAKe-OMWVe-25" style="edgeStyle=orthogonalEdgeStyle;rounded=0;orthogonalLoop=1;jettySize=auto;html=1;exitX=0.5;exitY=1;exitDx=0;exitDy=0;" edge="1" parent="1" source="RoCf0thXoswAKe-OMWVe-6">
          <mxGeometry relative="1" as="geometry">
            <mxPoint x="520" y="400" as="targetPoint" />
          </mxGeometry>
        </mxCell>
        <mxCell id="RoCf0thXoswAKe-OMWVe-6" value="user choice:&amp;nbsp;&lt;br&gt;multiply" style="rhombus;whiteSpace=wrap;html=1;" vertex="1" parent="1">
          <mxGeometry x="480" y="240" width="80" height="80" as="geometry" />
        </mxCell>
        <mxCell id="RoCf0thXoswAKe-OMWVe-22" style="edgeStyle=orthogonalEdgeStyle;rounded=0;orthogonalLoop=1;jettySize=auto;html=1;exitX=0.5;exitY=1;exitDx=0;exitDy=0;" edge="1" parent="1" source="RoCf0thXoswAKe-OMWVe-7">
          <mxGeometry relative="1" as="geometry">
            <mxPoint x="350" y="400" as="targetPoint" />
          </mxGeometry>
        </mxCell>
        <mxCell id="RoCf0thXoswAKe-OMWVe-7" value="user choice:&amp;nbsp;&lt;br&gt;divide" style="rhombus;whiteSpace=wrap;html=1;" vertex="1" parent="1">
          <mxGeometry x="310" y="240" width="80" height="80" as="geometry" />
        </mxCell>
        <mxCell id="RoCf0thXoswAKe-OMWVe-21" style="edgeStyle=orthogonalEdgeStyle;rounded=0;orthogonalLoop=1;jettySize=auto;html=1;" edge="1" parent="1" source="RoCf0thXoswAKe-OMWVe-8">
          <mxGeometry relative="1" as="geometry">
            <mxPoint x="680" y="140" as="targetPoint" />
          </mxGeometry>
        </mxCell>
        <mxCell id="RoCf0thXoswAKe-OMWVe-8" value="user choice:&amp;nbsp;&lt;br&gt;exit&lt;br&gt;" style="rhombus;whiteSpace=wrap;html=1;" vertex="1" parent="1">
          <mxGeometry x="560" y="240" width="80" height="80" as="geometry" />
        </mxCell>
        <mxCell id="RoCf0thXoswAKe-OMWVe-10" value="end" style="ellipse;whiteSpace=wrap;html=1;" vertex="1" parent="1">
          <mxGeometry x="620" y="60" width="120" height="80" as="geometry" />
        </mxCell>
        <mxCell id="RoCf0thXoswAKe-OMWVe-14" value="" style="endArrow=classic;html=1;rounded=0;" edge="1" parent="1">
          <mxGeometry width="50" height="50" relative="1" as="geometry">
            <mxPoint x="270" y="180" as="sourcePoint" />
            <mxPoint x="270" y="240" as="targetPoint" />
          </mxGeometry>
        </mxCell>
        <mxCell id="RoCf0thXoswAKe-OMWVe-16" value="" style="endArrow=classic;html=1;rounded=0;" edge="1" parent="1">
          <mxGeometry width="50" height="50" relative="1" as="geometry">
            <mxPoint x="349.5" y="180" as="sourcePoint" />
            <mxPoint x="349.5" y="240" as="targetPoint" />
          </mxGeometry>
        </mxCell>
        <mxCell id="RoCf0thXoswAKe-OMWVe-19" value="" style="endArrow=classic;html=1;rounded=0;entryX=0.5;entryY=0;entryDx=0;entryDy=0;" edge="1" parent="1" target="RoCf0thXoswAKe-OMWVe-8">
          <mxGeometry width="50" height="50" relative="1" as="geometry">
            <mxPoint x="520" y="180" as="sourcePoint" />
            <mxPoint x="600" y="150" as="targetPoint" />
            <Array as="points">
              <mxPoint x="600" y="180" />
            </Array>
          </mxGeometry>
        </mxCell>
        <mxCell id="RoCf0thXoswAKe-OMWVe-26" value="Yes" style="text;html=1;align=center;verticalAlign=middle;resizable=0;points=[];autosize=1;strokeColor=none;fillColor=none;" vertex="1" parent="1">
          <mxGeometry x="640" y="250" width="40" height="30" as="geometry" />
        </mxCell>
        <mxCell id="RoCf0thXoswAKe-OMWVe-28" value="Yes" style="text;html=1;align=center;verticalAlign=middle;resizable=0;points=[];autosize=1;strokeColor=none;fillColor=none;" vertex="1" parent="1">
          <mxGeometry x="520" y="340" width="40" height="30" as="geometry" />
        </mxCell>
        <mxCell id="RoCf0thXoswAKe-OMWVe-29" value="Yes" style="text;html=1;align=center;verticalAlign=middle;resizable=0;points=[];autosize=1;strokeColor=none;fillColor=none;" vertex="1" parent="1">
          <mxGeometry x="354" y="330" width="40" height="30" as="geometry" />
        </mxCell>
        <mxCell id="RoCf0thXoswAKe-OMWVe-30" value="Yes" style="text;html=1;align=center;verticalAlign=middle;resizable=0;points=[];autosize=1;strokeColor=none;fillColor=none;" vertex="1" parent="1">
          <mxGeometry x="270" y="340" width="40" height="30" as="geometry" />
        </mxCell>
        <mxCell id="RoCf0thXoswAKe-OMWVe-31" value="Yes" style="text;html=1;align=center;verticalAlign=middle;resizable=0;points=[];autosize=1;strokeColor=none;fillColor=none;" vertex="1" parent="1">
          <mxGeometry x="190" y="340" width="40" height="30" as="geometry" />
        </mxCell>
        <mxCell id="RoCf0thXoswAKe-OMWVe-37" style="edgeStyle=orthogonalEdgeStyle;rounded=0;orthogonalLoop=1;jettySize=auto;html=1;exitX=0.5;exitY=1;exitDx=0;exitDy=0;entryX=0.5;entryY=0;entryDx=0;entryDy=0;" edge="1" parent="1" source="RoCf0thXoswAKe-OMWVe-32" target="RoCf0thXoswAKe-OMWVe-33">
          <mxGeometry relative="1" as="geometry" />
        </mxCell>
        <mxCell id="RoCf0thXoswAKe-OMWVe-32" value="Calculator&lt;br&gt;homescreen&lt;br&gt;menu" style="ellipse;whiteSpace=wrap;html=1;" vertex="1" parent="1">
          <mxGeometry x="360" y="440" width="120" height="80" as="geometry" />
        </mxCell>
        <mxCell id="RoCf0thXoswAKe-OMWVe-38" style="edgeStyle=orthogonalEdgeStyle;rounded=0;orthogonalLoop=1;jettySize=auto;html=1;entryX=0.5;entryY=0;entryDx=0;entryDy=0;" edge="1" parent="1" source="RoCf0thXoswAKe-OMWVe-33" target="RoCf0thXoswAKe-OMWVe-34">
          <mxGeometry relative="1" as="geometry" />
        </mxCell>
        <mxCell id="RoCf0thXoswAKe-OMWVe-33" value="user menu choice" style="shape=parallelogram;perimeter=parallelogramPerimeter;whiteSpace=wrap;html=1;fixedSize=1;" vertex="1" parent="1">
          <mxGeometry x="354" y="555" width="120" height="60" as="geometry" />
        </mxCell>
        <mxCell id="RoCf0thXoswAKe-OMWVe-39" style="edgeStyle=orthogonalEdgeStyle;rounded=0;orthogonalLoop=1;jettySize=auto;html=1;" edge="1" parent="1" source="RoCf0thXoswAKe-OMWVe-34">
          <mxGeometry relative="1" as="geometry">
            <mxPoint x="660" y="610" as="targetPoint" />
          </mxGeometry>
        </mxCell>
        <mxCell id="RoCf0thXoswAKe-OMWVe-41" style="edgeStyle=orthogonalEdgeStyle;rounded=0;orthogonalLoop=1;jettySize=auto;html=1;" edge="1" parent="1" source="RoCf0thXoswAKe-OMWVe-34">
          <mxGeometry relative="1" as="geometry">
            <mxPoint x="414" y="800" as="targetPoint" />
          </mxGeometry>
        </mxCell>
        <mxCell id="RoCf0thXoswAKe-OMWVe-34" value="user selected operation" style="rhombus;whiteSpace=wrap;html=1;" vertex="1" parent="1">
          <mxGeometry x="361" y="640" width="106" height="100" as="geometry" />
        </mxCell>
        <mxCell id="RoCf0thXoswAKe-OMWVe-42" style="edgeStyle=orthogonalEdgeStyle;rounded=0;orthogonalLoop=1;jettySize=auto;html=1;" edge="1" parent="1" source="RoCf0thXoswAKe-OMWVe-35" target="RoCf0thXoswAKe-OMWVe-36">
          <mxGeometry relative="1" as="geometry" />
        </mxCell>
        <mxCell id="RoCf0thXoswAKe-OMWVe-35" value="call operation from&lt;br&gt;SimpleCalculator&lt;br&gt;answer = returned value" style="rounded=0;whiteSpace=wrap;html=1;" vertex="1" parent="1">
          <mxGeometry x="354" y="910" width="120" height="60" as="geometry" />
        </mxCell>
        <mxCell id="RoCf0thXoswAKe-OMWVe-43" style="edgeStyle=orthogonalEdgeStyle;rounded=0;orthogonalLoop=1;jettySize=auto;html=1;entryX=0;entryY=0.5;entryDx=0;entryDy=0;" edge="1" parent="1" source="RoCf0thXoswAKe-OMWVe-36" target="RoCf0thXoswAKe-OMWVe-32">
          <mxGeometry relative="1" as="geometry">
            <mxPoint x="240" y="480" as="targetPoint" />
            <Array as="points">
              <mxPoint x="241" y="1060" />
              <mxPoint x="241" y="480" />
            </Array>
          </mxGeometry>
        </mxCell>
        <mxCell id="RoCf0thXoswAKe-OMWVe-36" value="output answer" style="shape=parallelogram;perimeter=parallelogramPerimeter;whiteSpace=wrap;html=1;fixedSize=1;" vertex="1" parent="1">
          <mxGeometry x="354" y="1040" width="120" height="60" as="geometry" />
        </mxCell>
        <mxCell id="RoCf0thXoswAKe-OMWVe-40" value="Exit" style="ellipse;whiteSpace=wrap;html=1;" vertex="1" parent="1">
          <mxGeometry x="600" y="440" width="120" height="80" as="geometry" />
        </mxCell>
        <mxCell id="RoCf0thXoswAKe-OMWVe-44" value="No" style="text;html=1;align=center;verticalAlign=middle;resizable=0;points=[];autosize=1;strokeColor=none;fillColor=none;" vertex="1" parent="1">
          <mxGeometry x="520" y="658" width="40" height="30" as="geometry" />
        </mxCell>
        <mxCell id="RoCf0thXoswAKe-OMWVe-45" value="Yes" style="text;html=1;align=center;verticalAlign=middle;resizable=0;points=[];autosize=1;strokeColor=none;fillColor=none;" vertex="1" parent="1">
          <mxGeometry x="414" y="730" width="40" height="30" as="geometry" />
        </mxCell>
        <mxCell id="RoCf0thXoswAKe-OMWVe-47" style="edgeStyle=orthogonalEdgeStyle;rounded=0;orthogonalLoop=1;jettySize=auto;html=1;entryX=0.5;entryY=1;entryDx=0;entryDy=0;" edge="1" parent="1" source="RoCf0thXoswAKe-OMWVe-46" target="RoCf0thXoswAKe-OMWVe-40">
          <mxGeometry relative="1" as="geometry" />
        </mxCell>
        <mxCell id="RoCf0thXoswAKe-OMWVe-46" value="Thank you message" style="rounded=0;whiteSpace=wrap;html=1;" vertex="1" parent="1">
          <mxGeometry x="600" y="550" width="120" height="60" as="geometry" />
        </mxCell>
        <mxCell id="RoCf0thXoswAKe-OMWVe-49" style="edgeStyle=orthogonalEdgeStyle;rounded=0;orthogonalLoop=1;jettySize=auto;html=1;entryX=0.5;entryY=0;entryDx=0;entryDy=0;" edge="1" parent="1" source="RoCf0thXoswAKe-OMWVe-48" target="RoCf0thXoswAKe-OMWVe-35">
          <mxGeometry relative="1" as="geometry" />
        </mxCell>
        <mxCell id="RoCf0thXoswAKe-OMWVe-48" value="input 2 operands&lt;br&gt;num1 &amp;amp; num2&lt;br&gt;&amp;nbsp;from user" style="shape=parallelogram;perimeter=parallelogramPerimeter;whiteSpace=wrap;html=1;fixedSize=1;" vertex="1" parent="1">
          <mxGeometry x="352" y="800" width="124" height="70" as="geometry" />
        </mxCell>
        <mxCell id="RoCf0thXoswAKe-OMWVe-50" value="" style="endArrow=none;html=1;rounded=0;" edge="1" parent="1">
          <mxGeometry width="50" height="50" relative="1" as="geometry">
            <mxPoint x="-10" y="420" as="sourcePoint" />
            <mxPoint x="830" y="420" as="targetPoint" />
          </mxGeometry>
        </mxCell>
        <mxCell id="RoCf0thXoswAKe-OMWVe-51" value="&lt;font style=&quot;font-size: 18px;&quot;&gt;How I started to make my flow chart.&lt;br&gt;Then I got stuck so I made it more basic&lt;br&gt;shown below.&lt;/font&gt;" style="text;html=1;align=center;verticalAlign=middle;resizable=0;points=[];autosize=1;strokeColor=none;fillColor=none;" vertex="1" parent="1">
          <mxGeometry x="6" y="30" width="340" height="80" as="geometry" />
        </mxCell>
      </root>
    </mxGraphModel>
  </diagram>
</mxfile>
